# xmcd
#
# Track frame offsets: 
#        150
#        13351
#        30646
#        43321
#        55385
#        68435
#        80042
#        94025
#        107156
#        118535
#        129468
#        142668
#        154603
#        167738
#        180053
#        192007
#        204582
#        216149
#        228278
#        237097
#
# Disc length: 3335 seconds
#
# Revision: 1
# Processed by: cddbd v1.5.2PL0 Copyright (c) Steve Scherf et al.
# Submitted via: ExactAudioCopy v0.99pb4
#
DISCID=050d0514
DTITLE=Various Artist - The History Of Country and Western [CD 14] (1947 1948)
DYEAR=1900
DGENRE=Country
TTITLE0=Hank Penny - Penny Blows His Top (1947)
TTITLE1=Dickie Jones - Diggin' (1947)
TTITLE2=The Miller Brothers - Miller's Boogie (1947)
TTITLE3=Buck Roberts - Big Beaver (1947)
TTITLE4=Red Woodward - Cowboy Boogie (1947)
TTITLE5=Hank Penny - Hillbilly Jump (1947)
TTITLE6=Harry Choates - Louisiana Boogie (1948)
TTITLE7=Johnny Bond - Birmingham Jail (1948)
TTITLE8=Johnny Tyler - Two Can Play Your Game (1948)
TTITLE9=K. C. Douglas - Mercury Boogie (1948)
TTITLE10=Hank Penny - Big Fat Papa (1948)
TTITLE11=Hawkshaw Hawkins - Dog House Boogie (1948)
TTITLE12=Curley Williams - Georgia Boogie (1948)
TTITLE13=Hank Williams - Honky Tonkin' (1948)
TTITLE14=Red Foley - Tennessee Saturday Night (1948)
TTITLE15=Johnny Bond - Mexicali Rose (1948)
TTITLE16=Pee Wee King - Bull Fiddle Boogie (1948)
TTITLE17=Eddie Miller - Don't Break My Heart (1948)
TTITLE18=Johnny Bond - Ridin' Down To Santa Fe (1948)
TTITLE19=Dub Adams - Income Tax (1948)
EXTD=
EXTT0=
EXTT1=
EXTT2=
EXTT3=
EXTT4=
EXTT5=
EXTT6=
EXTT7=
EXTT8=
EXTT9=
EXTT10=
EXTT11=
EXTT12=
EXTT13=
EXTT14=
EXTT15=
EXTT16=
EXTT17=
EXTT18=
EXTT19=
PLAYORDER=
